<svg width="145" height="24" viewBox="0 0 145 24" fill="none" xmlns="http://www.w3.org/2000/svg">
<circle cx="12" cy="12" r="9.552" fill="#244B6F"/>
<circle cx="12" cy="12" r="9.552" fill="url(#paint0_linear_38_47)" fill-opacity="0.2"/>
<path d="M14.65 16.175C14.8333 16.3917 15.0792 16.4958 15.3875 16.4875C15.6958 16.4792 15.95 16.3667 16.15 16.15C16.3833 15.95 16.5 15.7 16.5 15.4C16.5 15.1 16.3917 14.8417 16.175 14.625L13.1 11.55V7.775C13.1 7.49167 13.0042 7.25417 12.8125 7.0625C12.6208 6.87084 12.375 6.775 12.075 6.775C11.7917 6.775 11.55 6.87084 11.35 7.0625C11.15 7.25417 11.05 7.5 11.05 7.8V11.95C11.05 12.1 11.075 12.2417 11.125 12.375C11.175 12.5083 11.2583 12.6417 11.375 12.775L14.65 16.175ZM12 22.625C10.5333 22.625 9.15417 22.3458 7.8625 21.7875C6.57083 21.2292 5.44583 20.4708 4.4875 19.5125C3.52917 18.5542 2.77083 17.4292 2.2125 16.1375C1.65417 14.8458 1.375 13.4667 1.375 12C1.375 10.5333 1.65417 9.15417 2.2125 7.8625C2.77083 6.57084 3.52917 5.44584 4.4875 4.48751C5.44583 3.52917 6.57083 2.76667 7.8625 2.20001C9.15417 1.63334 10.5333 1.35001 12 1.35001C13.4667 1.35001 14.8458 1.63334 16.1375 2.20001C17.4292 2.76667 18.5542 3.52917 19.5125 4.48751C20.4708 5.44584 21.2333 6.57084 21.8 7.8625C22.3667 9.15417 22.65 10.5333 22.65 12C22.65 13.4667 22.3667 14.8458 21.8 16.1375C21.2333 17.4292 20.4708 18.5542 19.5125 19.5125C18.5542 20.4708 17.4292 21.2292 16.1375 21.7875C14.8458 22.3458 13.4667 22.625 12 22.625Z" fill="#EAEAEA"/>
<path d="M14.65 16.175C14.8333 16.3917 15.0792 16.4958 15.3875 16.4875C15.6958 16.4792 15.95 16.3667 16.15 16.15C16.3833 15.95 16.5 15.7 16.5 15.4C16.5 15.1 16.3917 14.8417 16.175 14.625L13.1 11.55V7.775C13.1 7.49167 13.0042 7.25417 12.8125 7.0625C12.6208 6.87084 12.375 6.775 12.075 6.775C11.7917 6.775 11.55 6.87084 11.35 7.0625C11.15 7.25417 11.05 7.5 11.05 7.8V11.95C11.05 12.1 11.075 12.2417 11.125 12.375C11.175 12.5083 11.2583 12.6417 11.375 12.775L14.65 16.175ZM12 22.625C10.5333 22.625 9.15417 22.3458 7.8625 21.7875C6.57083 21.2292 5.44583 20.4708 4.4875 19.5125C3.52917 18.5542 2.77083 17.4292 2.2125 16.1375C1.65417 14.8458 1.375 13.4667 1.375 12C1.375 10.5333 1.65417 9.15417 2.2125 7.8625C2.77083 6.57084 3.52917 5.44584 4.4875 4.48751C5.44583 3.52917 6.57083 2.76667 7.8625 2.20001C9.15417 1.63334 10.5333 1.35001 12 1.35001C13.4667 1.35001 14.8458 1.63334 16.1375 2.20001C17.4292 2.76667 18.5542 3.52917 19.5125 4.48751C20.4708 5.44584 21.2333 6.57084 21.8 7.8625C22.3667 9.15417 22.65 10.5333 22.65 12C22.65 13.4667 22.3667 14.8458 21.8 16.1375C21.2333 17.4292 20.4708 18.5542 19.5125 19.5125C18.5542 20.4708 17.4292 21.2292 16.1375 21.7875C14.8458 22.3458 13.4667 22.625 12 22.625Z" fill="url(#paint1_angular_38_47)" fill-opacity="0.2"/>
<path d="M14.65 16.175C14.8333 16.3917 15.0792 16.4958 15.3875 16.4875C15.6958 16.4792 15.95 16.3667 16.15 16.15C16.3833 15.95 16.5 15.7 16.5 15.4C16.5 15.1 16.3917 14.8417 16.175 14.625L13.1 11.55V7.775C13.1 7.49167 13.0042 7.25417 12.8125 7.0625C12.6208 6.87084 12.375 6.775 12.075 6.775C11.7917 6.775 11.55 6.87084 11.35 7.0625C11.15 7.25417 11.05 7.5 11.05 7.8V11.95C11.05 12.1 11.075 12.2417 11.125 12.375C11.175 12.5083 11.2583 12.6417 11.375 12.775L14.65 16.175ZM12 22.625C10.5333 22.625 9.15417 22.3458 7.8625 21.7875C6.57083 21.2292 5.44583 20.4708 4.4875 19.5125C3.52917 18.5542 2.77083 17.4292 2.2125 16.1375C1.65417 14.8458 1.375 13.4667 1.375 12C1.375 10.5333 1.65417 9.15417 2.2125 7.8625C2.77083 6.57084 3.52917 5.44584 4.4875 4.48751C5.44583 3.52917 6.57083 2.76667 7.8625 2.20001C9.15417 1.63334 10.5333 1.35001 12 1.35001C13.4667 1.35001 14.8458 1.63334 16.1375 2.20001C17.4292 2.76667 18.5542 3.52917 19.5125 4.48751C20.4708 5.44584 21.2333 6.57084 21.8 7.8625C22.3667 9.15417 22.65 10.5333 22.65 12C22.65 13.4667 22.3667 14.8458 21.8 16.1375C21.2333 17.4292 20.4708 18.5542 19.5125 19.5125C18.5542 20.4708 17.4292 21.2292 16.1375 21.7875C14.8458 22.3458 13.4667 22.625 12 22.625Z" fill="url(#paint2_angular_38_47)" fill-opacity="0.2"/>
<path d="M14.65 16.175C14.8333 16.3917 15.0792 16.4958 15.3875 16.4875C15.6958 16.4792 15.95 16.3667 16.15 16.15C16.3833 15.95 16.5 15.7 16.5 15.4C16.5 15.1 16.3917 14.8417 16.175 14.625L13.1 11.55V7.775C13.1 7.49167 13.0042 7.25417 12.8125 7.0625C12.6208 6.87084 12.375 6.775 12.075 6.775C11.7917 6.775 11.55 6.87084 11.35 7.0625C11.15 7.25417 11.05 7.5 11.05 7.8V11.95C11.05 12.1 11.075 12.2417 11.125 12.375C11.175 12.5083 11.2583 12.6417 11.375 12.775L14.65 16.175ZM12 22.625C10.5333 22.625 9.15417 22.3458 7.8625 21.7875C6.57083 21.2292 5.44583 20.4708 4.4875 19.5125C3.52917 18.5542 2.77083 17.4292 2.2125 16.1375C1.65417 14.8458 1.375 13.4667 1.375 12C1.375 10.5333 1.65417 9.15417 2.2125 7.8625C2.77083 6.57084 3.52917 5.44584 4.4875 4.48751C5.44583 3.52917 6.57083 2.76667 7.8625 2.20001C9.15417 1.63334 10.5333 1.35001 12 1.35001C13.4667 1.35001 14.8458 1.63334 16.1375 2.20001C17.4292 2.76667 18.5542 3.52917 19.5125 4.48751C20.4708 5.44584 21.2333 6.57084 21.8 7.8625C22.3667 9.15417 22.65 10.5333 22.65 12C22.65 13.4667 22.3667 14.8458 21.8 16.1375C21.2333 17.4292 20.4708 18.5542 19.5125 19.5125C18.5542 20.4708 17.4292 21.2292 16.1375 21.7875C14.8458 22.3458 13.4667 22.625 12 22.625Z" fill="url(#paint3_angular_38_47)" fill-opacity="0.2"/>
<path d="M14.65 16.175C14.8333 16.3917 15.0792 16.4958 15.3875 16.4875C15.6958 16.4792 15.95 16.3667 16.15 16.15C16.3833 15.95 16.5 15.7 16.5 15.4C16.5 15.1 16.3917 14.8417 16.175 14.625L13.1 11.55V7.775C13.1 7.49167 13.0042 7.25417 12.8125 7.0625C12.6208 6.87084 12.375 6.775 12.075 6.775C11.7917 6.775 11.55 6.87084 11.35 7.0625C11.15 7.25417 11.05 7.5 11.05 7.8V11.95C11.05 12.1 11.075 12.2417 11.125 12.375C11.175 12.5083 11.2583 12.6417 11.375 12.775L14.65 16.175ZM12 22.625C10.5333 22.625 9.15417 22.3458 7.8625 21.7875C6.57083 21.2292 5.44583 20.4708 4.4875 19.5125C3.52917 18.5542 2.77083 17.4292 2.2125 16.1375C1.65417 14.8458 1.375 13.4667 1.375 12C1.375 10.5333 1.65417 9.15417 2.2125 7.8625C2.77083 6.57084 3.52917 5.44584 4.4875 4.48751C5.44583 3.52917 6.57083 2.76667 7.8625 2.20001C9.15417 1.63334 10.5333 1.35001 12 1.35001C13.4667 1.35001 14.8458 1.63334 16.1375 2.20001C17.4292 2.76667 18.5542 3.52917 19.5125 4.48751C20.4708 5.44584 21.2333 6.57084 21.8 7.8625C22.3667 9.15417 22.65 10.5333 22.65 12C22.65 13.4667 22.3667 14.8458 21.8 16.1375C21.2333 17.4292 20.4708 18.5542 19.5125 19.5125C18.5542 20.4708 17.4292 21.2292 16.1375 21.7875C14.8458 22.3458 13.4667 22.625 12 22.625Z" fill="url(#paint4_angular_38_47)" fill-opacity="0.2"/>
<line x1="29.5" y1="5" x2="29.5" y2="19" stroke="#424242"/>
<path d="M41.748 11H39.924V2.624H43.896C44.28 2.624 44.628 2.688 44.94 2.816C45.252 2.944 45.516 3.128 45.732 3.368C45.956 3.6 46.128 3.88 46.248 4.208C46.368 4.536 46.428 4.9 46.428 5.3C46.428 5.868 46.3 6.364 46.044 6.788C45.796 7.212 45.416 7.52 44.904 7.712L46.548 11H44.52L43.056 7.928H41.748V11ZM43.668 6.392C43.94 6.392 44.152 6.324 44.304 6.188C44.464 6.044 44.544 5.836 44.544 5.564V5.036C44.544 4.764 44.464 4.56 44.304 4.424C44.152 4.28 43.94 4.208 43.668 4.208H41.748V6.392H43.668ZM52.4528 11C52.1328 11 51.8648 10.9 51.6488 10.7C51.4408 10.5 51.3088 10.232 51.2528 9.896H51.1808C51.0848 10.304 50.8728 10.616 50.5448 10.832C50.2168 11.04 49.8128 11.144 49.3328 11.144C48.7008 11.144 48.2168 10.976 47.8808 10.64C47.5448 10.304 47.3768 9.86 47.3768 9.308C47.3768 8.644 47.6168 8.152 48.0968 7.832C48.5848 7.504 49.2448 7.34 50.0768 7.34H51.0728V6.944C51.0728 6.64 50.9928 6.4 50.8328 6.224C50.6728 6.04 50.4048 5.948 50.0288 5.948C49.6768 5.948 49.3968 6.024 49.1888 6.176C48.9808 6.328 48.8088 6.5 48.6728 6.692L47.6168 5.756C47.8728 5.38 48.1928 5.088 48.5768 4.88C48.9688 4.664 49.4968 4.556 50.1608 4.556C51.0568 4.556 51.7288 4.752 52.1768 5.144C52.6248 5.536 52.8488 6.108 52.8488 6.86V9.62H53.4368V11H52.4528ZM49.9928 9.908C50.2888 9.908 50.5408 9.844 50.7488 9.716C50.9648 9.588 51.0728 9.38 51.0728 9.092V8.348H50.2088C49.5128 8.348 49.1648 8.584 49.1648 9.056V9.236C49.1648 9.468 49.2368 9.64 49.3808 9.752C49.5248 9.856 49.7288 9.908 49.9928 9.908ZM56.7648 11.144C56.1568 11.144 55.6448 11.048 55.2288 10.856C54.8128 10.656 54.4408 10.376 54.1128 10.016L55.1568 8.96C55.3808 9.208 55.6288 9.404 55.9008 9.548C56.1728 9.692 56.4808 9.764 56.8248 9.764C57.1768 9.764 57.4208 9.712 57.5568 9.608C57.6928 9.496 57.7608 9.348 57.7608 9.164C57.7608 8.868 57.5488 8.692 57.1248 8.636L56.4408 8.552C55.0248 8.376 54.3168 7.728 54.3168 6.608C54.3168 6.304 54.3728 6.028 54.4848 5.78C54.6048 5.524 54.7688 5.308 54.9768 5.132C55.1928 4.948 55.4488 4.808 55.7448 4.712C56.0488 4.608 56.3888 4.556 56.7648 4.556C57.0928 4.556 57.3808 4.58 57.6288 4.628C57.8848 4.668 58.1088 4.732 58.3008 4.82C58.5008 4.9 58.6808 5.004 58.8408 5.132C59.0088 5.252 59.1728 5.388 59.3328 5.54L58.3128 6.584C58.1128 6.384 57.8848 6.228 57.6288 6.116C57.3808 5.996 57.1248 5.936 56.8608 5.936C56.5568 5.936 56.3408 5.984 56.2128 6.08C56.0848 6.176 56.0208 6.304 56.0208 6.464C56.0208 6.632 56.0648 6.764 56.1528 6.86C56.2488 6.948 56.4248 7.012 56.6808 7.052L57.3888 7.148C58.7728 7.332 59.4648 7.964 59.4648 9.044C59.4648 9.348 59.4008 9.628 59.2728 9.884C59.1448 10.14 58.9608 10.364 58.7208 10.556C58.4888 10.74 58.2048 10.884 57.8688 10.988C57.5408 11.092 57.1728 11.144 56.7648 11.144ZM62.7899 11C62.1739 11 61.7059 10.844 61.3859 10.532C61.0739 10.22 60.9179 9.764 60.9179 9.164V6.08H60.0299V4.7H60.4739C60.7139 4.7 60.8779 4.644 60.9659 4.532C61.0539 4.412 61.0979 4.244 61.0979 4.028V2.996H62.6939V4.7H63.9419V6.08H62.6939V9.62H63.8459V11H62.7899ZM65.1757 11V4.7H66.9517V6.068H67.0117C67.0437 5.892 67.0997 5.724 67.1797 5.564C67.2597 5.396 67.3637 5.248 67.4917 5.12C67.6277 4.992 67.7877 4.892 67.9717 4.82C68.1557 4.74 68.3717 4.7 68.6197 4.7H68.9317V6.356H68.4877C67.9677 6.356 67.5797 6.424 67.3237 6.56C67.0757 6.696 66.9517 6.948 66.9517 7.316V11H65.1757ZM72.5966 11.144C72.1166 11.144 71.6886 11.068 71.3126 10.916C70.9366 10.756 70.6166 10.536 70.3526 10.256C70.0966 9.968 69.9006 9.62 69.7646 9.212C69.6366 8.804 69.5726 8.348 69.5726 7.844C69.5726 7.348 69.6366 6.9 69.7646 6.5C69.8926 6.092 70.0806 5.744 70.3286 5.456C70.5846 5.168 70.8966 4.948 71.2646 4.796C71.6326 4.636 72.0526 4.556 72.5246 4.556C73.0446 4.556 73.4886 4.644 73.8566 4.82C74.2326 4.996 74.5366 5.232 74.7686 5.528C75.0086 5.824 75.1806 6.168 75.2846 6.56C75.3966 6.944 75.4526 7.348 75.4526 7.772V8.3H71.4086V8.396C71.4086 8.812 71.5206 9.144 71.7446 9.392C71.9686 9.632 72.3206 9.752 72.8006 9.752C73.1686 9.752 73.4686 9.68 73.7006 9.536C73.9326 9.384 74.1486 9.204 74.3486 8.996L75.2366 10.1C74.9566 10.428 74.5886 10.684 74.1326 10.868C73.6846 11.052 73.1726 11.144 72.5966 11.144ZM72.5606 5.864C72.2006 5.864 71.9166 5.984 71.7086 6.224C71.5086 6.456 71.4086 6.768 71.4086 7.16V7.256H73.6166V7.148C73.6166 6.764 73.5286 6.456 73.3526 6.224C73.1846 5.984 72.9206 5.864 72.5606 5.864ZM81.3629 11C81.0429 11 80.7749 10.9 80.5589 10.7C80.3509 10.5 80.2189 10.232 80.1629 9.896H80.0909C79.9949 10.304 79.7829 10.616 79.4549 10.832C79.1269 11.04 78.7229 11.144 78.2429 11.144C77.6109 11.144 77.1269 10.976 76.7909 10.64C76.4549 10.304 76.2869 9.86 76.2869 9.308C76.2869 8.644 76.5269 8.152 77.0069 7.832C77.4949 7.504 78.1549 7.34 78.9869 7.34H79.9829V6.944C79.9829 6.64 79.9029 6.4 79.7429 6.224C79.5829 6.04 79.3149 5.948 78.9389 5.948C78.5869 5.948 78.3069 6.024 78.0989 6.176C77.8909 6.328 77.7189 6.5 77.5829 6.692L76.5269 5.756C76.7829 5.38 77.1029 5.088 77.4869 4.88C77.8789 4.664 78.4069 4.556 79.0709 4.556C79.9669 4.556 80.6389 4.752 81.0869 5.144C81.5349 5.536 81.7589 6.108 81.7589 6.86V9.62H82.3469V11H81.3629ZM78.9029 9.908C79.1989 9.908 79.4509 9.844 79.6589 9.716C79.8749 9.588 79.9829 9.38 79.9829 9.092V8.348H79.1189C78.4229 8.348 78.0749 8.584 78.0749 9.056V9.236C78.0749 9.468 78.1469 9.64 78.2909 9.752C78.4349 9.856 78.6389 9.908 78.9029 9.908ZM87.4029 9.944H87.3429C87.2949 10.112 87.2189 10.272 87.1149 10.424C87.0109 10.568 86.8829 10.696 86.7309 10.808C86.5869 10.912 86.4189 10.992 86.2269 11.048C86.0429 11.112 85.8509 11.144 85.6509 11.144C84.8509 11.144 84.2469 10.864 83.8389 10.304C83.4309 9.736 83.2269 8.916 83.2269 7.844C83.2269 6.772 83.4309 5.956 83.8389 5.396C84.2469 4.836 84.8509 4.556 85.6509 4.556C86.0589 4.556 86.4189 4.668 86.7309 4.892C87.0509 5.116 87.2549 5.404 87.3429 5.756H87.4029V2.12H89.1789V11H87.4029V9.944ZM86.2389 9.704C86.5749 9.704 86.8509 9.624 87.0669 9.464C87.2909 9.296 87.4029 9.068 87.4029 8.78V6.92C87.4029 6.632 87.2909 6.408 87.0669 6.248C86.8509 6.08 86.5749 5.996 86.2389 5.996C85.9029 5.996 85.6229 6.116 85.3989 6.356C85.1829 6.588 85.0749 6.904 85.0749 7.304V8.396C85.0749 8.796 85.1829 9.116 85.3989 9.356C85.6229 9.588 85.9029 9.704 86.2389 9.704ZM93.3957 11.144C92.9317 11.144 92.5157 11.068 92.1477 10.916C91.7877 10.764 91.4797 10.544 91.2237 10.256C90.9757 9.968 90.7837 9.62 90.6477 9.212C90.5117 8.804 90.4437 8.348 90.4437 7.844C90.4437 7.34 90.5117 6.884 90.6477 6.476C90.7837 6.068 90.9757 5.724 91.2237 5.444C91.4797 5.156 91.7877 4.936 92.1477 4.784C92.5157 4.632 92.9317 4.556 93.3957 4.556C93.8597 4.556 94.2717 4.632 94.6317 4.784C94.9997 4.936 95.3077 5.156 95.5557 5.444C95.8117 5.724 96.0077 6.068 96.1437 6.476C96.2797 6.884 96.3477 7.34 96.3477 7.844C96.3477 8.348 96.2797 8.804 96.1437 9.212C96.0077 9.62 95.8117 9.968 95.5557 10.256C95.3077 10.544 94.9997 10.764 94.6317 10.916C94.2717 11.068 93.8597 11.144 93.3957 11.144ZM93.3957 9.74C93.7477 9.74 94.0197 9.632 94.2117 9.416C94.4037 9.2 94.4997 8.892 94.4997 8.492V7.208C94.4997 6.808 94.4037 6.5 94.2117 6.284C94.0197 6.068 93.7477 5.96 93.3957 5.96C93.0437 5.96 92.7717 6.068 92.5797 6.284C92.3877 6.5 92.2917 6.808 92.2917 7.208V8.492C92.2917 8.892 92.3877 9.2 92.5797 9.416C92.7717 9.632 93.0437 9.74 93.3957 9.74ZM97.6132 11V4.7H99.3892V6.068H99.4492C99.4812 5.892 99.5372 5.724 99.6172 5.564C99.6972 5.396 99.8012 5.248 99.9292 5.12C100.065 4.992 100.225 4.892 100.409 4.82C100.593 4.74 100.809 4.7 101.057 4.7H101.369V6.356H100.925C100.405 6.356 100.017 6.424 99.7612 6.56C99.5132 6.696 99.3892 6.948 99.3892 7.316V11H97.6132ZM109.165 9.944H109.105C109.057 10.112 108.981 10.272 108.877 10.424C108.773 10.568 108.645 10.696 108.493 10.808C108.349 10.912 108.181 10.992 107.989 11.048C107.805 11.112 107.613 11.144 107.413 11.144C106.613 11.144 106.009 10.864 105.601 10.304C105.193 9.736 104.989 8.916 104.989 7.844C104.989 6.772 105.193 5.956 105.601 5.396C106.009 4.836 106.613 4.556 107.413 4.556C107.821 4.556 108.181 4.668 108.493 4.892C108.813 5.116 109.017 5.404 109.105 5.756H109.165V2.12H110.941V11H109.165V9.944ZM108.001 9.704C108.337 9.704 108.613 9.624 108.829 9.464C109.053 9.296 109.165 9.068 109.165 8.78V6.92C109.165 6.632 109.053 6.408 108.829 6.248C108.613 6.08 108.337 5.996 108.001 5.996C107.665 5.996 107.385 6.116 107.161 6.356C106.945 6.588 106.837 6.904 106.837 7.304V8.396C106.837 8.796 106.945 9.116 107.161 9.356C107.385 9.588 107.665 9.704 108.001 9.704ZM115.229 11.144C114.749 11.144 114.321 11.068 113.945 10.916C113.569 10.756 113.249 10.536 112.985 10.256C112.729 9.968 112.533 9.62 112.397 9.212C112.269 8.804 112.205 8.348 112.205 7.844C112.205 7.348 112.269 6.9 112.397 6.5C112.525 6.092 112.713 5.744 112.961 5.456C113.217 5.168 113.529 4.948 113.897 4.796C114.265 4.636 114.685 4.556 115.157 4.556C115.677 4.556 116.121 4.644 116.489 4.82C116.865 4.996 117.169 5.232 117.401 5.528C117.641 5.824 117.813 6.168 117.917 6.56C118.029 6.944 118.085 7.348 118.085 7.772V8.3H114.041V8.396C114.041 8.812 114.153 9.144 114.377 9.392C114.601 9.632 114.953 9.752 115.433 9.752C115.801 9.752 116.101 9.68 116.333 9.536C116.565 9.384 116.781 9.204 116.981 8.996L117.869 10.1C117.589 10.428 117.221 10.684 116.765 10.868C116.317 11.052 115.805 11.144 115.229 11.144ZM115.193 5.864C114.833 5.864 114.549 5.984 114.341 6.224C114.141 6.456 114.041 6.768 114.041 7.16V7.256H116.249V7.148C116.249 6.764 116.161 6.456 115.985 6.224C115.817 5.984 115.553 5.864 115.193 5.864ZM44.94 19.568H41.748V23H39.924V14.624H41.748V17.96H44.94V14.624H46.764V23H44.94V19.568ZM51.0676 23.144C50.6036 23.144 50.1876 23.068 49.8196 22.916C49.4596 22.764 49.1516 22.544 48.8956 22.256C48.6476 21.968 48.4556 21.62 48.3196 21.212C48.1836 20.804 48.1156 20.348 48.1156 19.844C48.1156 19.34 48.1836 18.884 48.3196 18.476C48.4556 18.068 48.6476 17.724 48.8956 17.444C49.1516 17.156 49.4596 16.936 49.8196 16.784C50.1876 16.632 50.6036 16.556 51.0676 16.556C51.5316 16.556 51.9436 16.632 52.3036 16.784C52.6716 16.936 52.9796 17.156 53.2276 17.444C53.4836 17.724 53.6796 18.068 53.8156 18.476C53.9516 18.884 54.0196 19.34 54.0196 19.844C54.0196 20.348 53.9516 20.804 53.8156 21.212C53.6796 21.62 53.4836 21.968 53.2276 22.256C52.9796 22.544 52.6716 22.764 52.3036 22.916C51.9436 23.068 51.5316 23.144 51.0676 23.144ZM51.0676 21.74C51.4196 21.74 51.6916 21.632 51.8836 21.416C52.0756 21.2 52.1716 20.892 52.1716 20.492V19.208C52.1716 18.808 52.0756 18.5 51.8836 18.284C51.6916 18.068 51.4196 17.96 51.0676 17.96C50.7156 17.96 50.4436 18.068 50.2516 18.284C50.0596 18.5 49.9636 18.808 49.9636 19.208V20.492C49.9636 20.892 50.0596 21.2 50.2516 21.416C50.4436 21.632 50.7156 21.74 51.0676 21.74ZM55.285 23V16.7H57.061V18.068H57.121C57.153 17.892 57.209 17.724 57.289 17.564C57.369 17.396 57.473 17.248 57.601 17.12C57.737 16.992 57.897 16.892 58.081 16.82C58.265 16.74 58.481 16.7 58.729 16.7H59.041V18.356H58.597C58.077 18.356 57.689 18.424 57.433 18.56C57.185 18.696 57.061 18.948 57.061 19.316V23H55.285ZM64.6285 23C64.3085 23 64.0405 22.9 63.8245 22.7C63.6165 22.5 63.4845 22.232 63.4285 21.896H63.3565C63.2605 22.304 63.0485 22.616 62.7205 22.832C62.3925 23.04 61.9885 23.144 61.5085 23.144C60.8765 23.144 60.3925 22.976 60.0565 22.64C59.7205 22.304 59.5525 21.86 59.5525 21.308C59.5525 20.644 59.7925 20.152 60.2725 19.832C60.7605 19.504 61.4205 19.34 62.2525 19.34H63.2485V18.944C63.2485 18.64 63.1685 18.4 63.0085 18.224C62.8485 18.04 62.5805 17.948 62.2045 17.948C61.8525 17.948 61.5725 18.024 61.3645 18.176C61.1565 18.328 60.9845 18.5 60.8485 18.692L59.7925 17.756C60.0485 17.38 60.3685 17.088 60.7525 16.88C61.1445 16.664 61.6725 16.556 62.3365 16.556C63.2325 16.556 63.9045 16.752 64.3525 17.144C64.8005 17.536 65.0245 18.108 65.0245 18.86V21.62H65.6125V23H64.6285ZM62.1685 21.908C62.4645 21.908 62.7165 21.844 62.9245 21.716C63.1405 21.588 63.2485 21.38 63.2485 21.092V20.348H62.3845C61.6885 20.348 61.3405 20.584 61.3405 21.056V21.236C61.3405 21.468 61.4125 21.64 61.5565 21.752C61.7005 21.856 61.9045 21.908 62.1685 21.908ZM68.9406 23.144C68.3326 23.144 67.8206 23.048 67.4046 22.856C66.9886 22.656 66.6166 22.376 66.2886 22.016L67.3326 20.96C67.5566 21.208 67.8046 21.404 68.0766 21.548C68.3486 21.692 68.6566 21.764 69.0006 21.764C69.3526 21.764 69.5966 21.712 69.7326 21.608C69.8686 21.496 69.9366 21.348 69.9366 21.164C69.9366 20.868 69.7246 20.692 69.3006 20.636L68.6166 20.552C67.2006 20.376 66.4926 19.728 66.4926 18.608C66.4926 18.304 66.5486 18.028 66.6606 17.78C66.7806 17.524 66.9446 17.308 67.1526 17.132C67.3686 16.948 67.6246 16.808 67.9206 16.712C68.2246 16.608 68.5646 16.556 68.9406 16.556C69.2686 16.556 69.5566 16.58 69.8046 16.628C70.0606 16.668 70.2846 16.732 70.4766 16.82C70.6766 16.9 70.8566 17.004 71.0166 17.132C71.1846 17.252 71.3486 17.388 71.5086 17.54L70.4886 18.584C70.2886 18.384 70.0606 18.228 69.8046 18.116C69.5566 17.996 69.3006 17.936 69.0366 17.936C68.7326 17.936 68.5166 17.984 68.3886 18.08C68.2606 18.176 68.1966 18.304 68.1966 18.464C68.1966 18.632 68.2406 18.764 68.3286 18.86C68.4246 18.948 68.6006 19.012 68.8566 19.052L69.5646 19.148C70.9486 19.332 71.6406 19.964 71.6406 21.044C71.6406 21.348 71.5766 21.628 71.4486 21.884C71.3206 22.14 71.1366 22.364 70.8966 22.556C70.6646 22.74 70.3806 22.884 70.0446 22.988C69.7166 23.092 69.3486 23.144 68.9406 23.144ZM79.2754 16.244V23H77.4514V16.244H75.1834V14.624H81.5434V16.244H79.2754ZM82.1561 23V16.7H83.9321V18.068H83.9921C84.0241 17.892 84.0801 17.724 84.1601 17.564C84.2401 17.396 84.3441 17.248 84.4721 17.12C84.6081 16.992 84.7681 16.892 84.9521 16.82C85.1361 16.74 85.3521 16.7 85.6001 16.7H85.9121V18.356H85.4681C84.9481 18.356 84.5601 18.424 84.3041 18.56C84.0561 18.696 83.9321 18.948 83.9321 19.316V23H82.1561ZM91.4996 23C91.1796 23 90.9116 22.9 90.6956 22.7C90.4876 22.5 90.3556 22.232 90.2996 21.896H90.2276C90.1316 22.304 89.9196 22.616 89.5916 22.832C89.2636 23.04 88.8596 23.144 88.3796 23.144C87.7476 23.144 87.2636 22.976 86.9276 22.64C86.5916 22.304 86.4236 21.86 86.4236 21.308C86.4236 20.644 86.6636 20.152 87.1436 19.832C87.6316 19.504 88.2916 19.34 89.1236 19.34H90.1196V18.944C90.1196 18.64 90.0396 18.4 89.8796 18.224C89.7196 18.04 89.4516 17.948 89.0756 17.948C88.7236 17.948 88.4436 18.024 88.2356 18.176C88.0276 18.328 87.8556 18.5 87.7196 18.692L86.6636 17.756C86.9196 17.38 87.2396 17.088 87.6236 16.88C88.0156 16.664 88.5436 16.556 89.2076 16.556C90.1036 16.556 90.7756 16.752 91.2236 17.144C91.6716 17.536 91.8956 18.108 91.8956 18.86V21.62H92.4836V23H91.4996ZM89.0396 21.908C89.3356 21.908 89.5876 21.844 89.7956 21.716C90.0116 21.588 90.1196 21.38 90.1196 21.092V20.348H89.2556C88.5596 20.348 88.2116 20.584 88.2116 21.056V21.236C88.2116 21.468 88.2836 21.64 88.4276 21.752C88.5716 21.856 88.7756 21.908 89.0396 21.908ZM93.6757 14.12H95.4517V17.756H95.5117C95.5997 17.404 95.7997 17.116 96.1117 16.892C96.4317 16.668 96.7957 16.556 97.2037 16.556C98.0037 16.556 98.6077 16.836 99.0157 17.396C99.4237 17.956 99.6277 18.772 99.6277 19.844C99.6277 20.916 99.4237 21.736 99.0157 22.304C98.6077 22.864 98.0037 23.144 97.2037 23.144C96.9957 23.144 96.7997 23.112 96.6157 23.048C96.4317 22.992 96.2637 22.912 96.1117 22.808C95.9677 22.696 95.8437 22.568 95.7397 22.424C95.6357 22.272 95.5597 22.112 95.5117 21.944H95.4517V23H93.6757V14.12ZM96.6157 21.704C96.9517 21.704 97.2277 21.588 97.4437 21.356C97.6677 21.116 97.7797 20.796 97.7797 20.396V19.304C97.7797 18.904 97.6677 18.588 97.4437 18.356C97.2277 18.116 96.9517 17.996 96.6157 17.996C96.2797 17.996 95.9997 18.08 95.7757 18.248C95.5597 18.408 95.4517 18.632 95.4517 18.92V20.78C95.4517 21.068 95.5597 21.296 95.7757 21.464C95.9997 21.624 96.2797 21.704 96.6157 21.704ZM105.632 23C105.312 23 105.044 22.9 104.828 22.7C104.62 22.5 104.488 22.232 104.432 21.896H104.36C104.264 22.304 104.052 22.616 103.724 22.832C103.396 23.04 102.992 23.144 102.512 23.144C101.88 23.144 101.396 22.976 101.06 22.64C100.724 22.304 100.556 21.86 100.556 21.308C100.556 20.644 100.796 20.152 101.276 19.832C101.764 19.504 102.424 19.34 103.256 19.34H104.252V18.944C104.252 18.64 104.172 18.4 104.012 18.224C103.852 18.04 103.584 17.948 103.208 17.948C102.856 17.948 102.576 18.024 102.368 18.176C102.16 18.328 101.988 18.5 101.852 18.692L100.796 17.756C101.052 17.38 101.372 17.088 101.756 16.88C102.148 16.664 102.676 16.556 103.34 16.556C104.236 16.556 104.908 16.752 105.356 17.144C105.804 17.536 106.028 18.108 106.028 18.86V21.62H106.616V23H105.632ZM103.172 21.908C103.468 21.908 103.72 21.844 103.928 21.716C104.144 21.588 104.252 21.38 104.252 21.092V20.348H103.388C102.692 20.348 102.344 20.584 102.344 21.056V21.236C102.344 21.468 102.416 21.64 102.56 21.752C102.704 21.856 102.908 21.908 103.172 21.908ZM109.572 23C108.964 23 108.516 22.852 108.228 22.556C107.948 22.26 107.808 21.832 107.808 21.272V14.12H109.584V21.62H110.376V23H109.572ZM111.441 14.12H113.217V17.768H113.289C113.401 17.44 113.597 17.156 113.877 16.916C114.157 16.676 114.545 16.556 115.041 16.556C115.689 16.556 116.177 16.772 116.505 17.204C116.841 17.636 117.009 18.252 117.009 19.052V23H115.233V19.196C115.233 18.788 115.169 18.488 115.041 18.296C114.913 18.096 114.685 17.996 114.357 17.996C114.213 17.996 114.073 18.016 113.937 18.056C113.801 18.088 113.677 18.144 113.565 18.224C113.461 18.304 113.377 18.404 113.313 18.524C113.249 18.636 113.217 18.768 113.217 18.92V23H111.441V14.12ZM123.246 23C122.926 23 122.658 22.9 122.442 22.7C122.234 22.5 122.102 22.232 122.046 21.896H121.974C121.878 22.304 121.666 22.616 121.338 22.832C121.01 23.04 120.606 23.144 120.126 23.144C119.494 23.144 119.01 22.976 118.674 22.64C118.338 22.304 118.17 21.86 118.17 21.308C118.17 20.644 118.41 20.152 118.89 19.832C119.378 19.504 120.038 19.34 120.87 19.34H121.866V18.944C121.866 18.64 121.786 18.4 121.626 18.224C121.466 18.04 121.198 17.948 120.822 17.948C120.47 17.948 120.19 18.024 119.982 18.176C119.774 18.328 119.602 18.5 119.466 18.692L118.41 17.756C118.666 17.38 118.986 17.088 119.37 16.88C119.762 16.664 120.29 16.556 120.954 16.556C121.85 16.556 122.522 16.752 122.97 17.144C123.418 17.536 123.642 18.108 123.642 18.86V21.62H124.23V23H123.246ZM120.786 21.908C121.082 21.908 121.334 21.844 121.542 21.716C121.758 21.588 121.866 21.38 121.866 21.092V20.348H121.002C120.306 20.348 119.958 20.584 119.958 21.056V21.236C119.958 21.468 120.03 21.64 120.174 21.752C120.318 21.856 120.522 21.908 120.786 21.908ZM129.286 21.944H129.226C129.178 22.112 129.102 22.272 128.998 22.424C128.894 22.568 128.766 22.696 128.614 22.808C128.47 22.912 128.302 22.992 128.11 23.048C127.926 23.112 127.734 23.144 127.534 23.144C126.734 23.144 126.13 22.864 125.722 22.304C125.314 21.736 125.11 20.916 125.11 19.844C125.11 18.772 125.314 17.956 125.722 17.396C126.13 16.836 126.734 16.556 127.534 16.556C127.942 16.556 128.302 16.668 128.614 16.892C128.934 17.116 129.138 17.404 129.226 17.756H129.286V14.12H131.062V23H129.286V21.944ZM128.122 21.704C128.458 21.704 128.734 21.624 128.95 21.464C129.174 21.296 129.286 21.068 129.286 20.78V18.92C129.286 18.632 129.174 18.408 128.95 18.248C128.734 18.08 128.458 17.996 128.122 17.996C127.786 17.996 127.506 18.116 127.282 18.356C127.066 18.588 126.958 18.904 126.958 19.304V20.396C126.958 20.796 127.066 21.116 127.282 21.356C127.506 21.588 127.786 21.704 128.122 21.704ZM137.379 23C137.059 23 136.791 22.9 136.575 22.7C136.367 22.5 136.235 22.232 136.179 21.896H136.107C136.011 22.304 135.799 22.616 135.471 22.832C135.143 23.04 134.739 23.144 134.259 23.144C133.627 23.144 133.143 22.976 132.807 22.64C132.471 22.304 132.303 21.86 132.303 21.308C132.303 20.644 132.543 20.152 133.023 19.832C133.511 19.504 134.171 19.34 135.003 19.34H135.999V18.944C135.999 18.64 135.919 18.4 135.759 18.224C135.599 18.04 135.331 17.948 134.955 17.948C134.603 17.948 134.323 18.024 134.115 18.176C133.907 18.328 133.735 18.5 133.599 18.692L132.543 17.756C132.799 17.38 133.119 17.088 133.503 16.88C133.895 16.664 134.423 16.556 135.087 16.556C135.983 16.556 136.655 16.752 137.103 17.144C137.551 17.536 137.775 18.108 137.775 18.86V21.62H138.363V23H137.379ZM134.919 21.908C135.215 21.908 135.467 21.844 135.675 21.716C135.891 21.588 135.999 21.38 135.999 21.092V20.348H135.135C134.439 20.348 134.091 20.584 134.091 21.056V21.236C134.091 21.468 134.163 21.64 134.307 21.752C134.451 21.856 134.655 21.908 134.919 21.908ZM141.691 23.144C141.083 23.144 140.571 23.048 140.155 22.856C139.739 22.656 139.367 22.376 139.039 22.016L140.083 20.96C140.307 21.208 140.555 21.404 140.827 21.548C141.099 21.692 141.407 21.764 141.751 21.764C142.103 21.764 142.347 21.712 142.483 21.608C142.619 21.496 142.687 21.348 142.687 21.164C142.687 20.868 142.475 20.692 142.051 20.636L141.367 20.552C139.951 20.376 139.243 19.728 139.243 18.608C139.243 18.304 139.299 18.028 139.411 17.78C139.531 17.524 139.695 17.308 139.903 17.132C140.119 16.948 140.375 16.808 140.671 16.712C140.975 16.608 141.315 16.556 141.691 16.556C142.019 16.556 142.307 16.58 142.555 16.628C142.811 16.668 143.035 16.732 143.227 16.82C143.427 16.9 143.607 17.004 143.767 17.132C143.935 17.252 144.099 17.388 144.259 17.54L143.239 18.584C143.039 18.384 142.811 18.228 142.555 18.116C142.307 17.996 142.051 17.936 141.787 17.936C141.483 17.936 141.267 17.984 141.139 18.08C141.011 18.176 140.947 18.304 140.947 18.464C140.947 18.632 140.991 18.764 141.079 18.86C141.175 18.948 141.351 19.012 141.607 19.052L142.315 19.148C143.699 19.332 144.391 19.964 144.391 21.044C144.391 21.348 144.327 21.628 144.199 21.884C144.071 22.14 143.887 22.364 143.647 22.556C143.415 22.74 143.131 22.884 142.795 22.988C142.467 23.092 142.099 23.144 141.691 23.144Z" fill="white"/>
<defs>
<linearGradient id="paint0_linear_38_47" x1="12" y1="7.37459" x2="12" y2="16.4318" gradientUnits="userSpaceOnUse">
<stop stop-color="#244B6F"/>
<stop offset="1" stop-color="#FF0000"/>
</linearGradient>
<radialGradient id="paint1_angular_38_47" cx="0" cy="0" r="1" gradientUnits="userSpaceOnUse" gradientTransform="translate(12.0125 11.9875) rotate(45) scale(9.82525)">
<stop stop-color="#244B6F"/>
<stop offset="1" stop-color="#EAEAEA"/>
</radialGradient>
<radialGradient id="paint2_angular_38_47" cx="0" cy="0" r="1" gradientUnits="userSpaceOnUse" gradientTransform="translate(12.0125 11.9875) rotate(45) scale(9.82525)">
<stop stop-color="#244B6F"/>
<stop offset="1" stop-color="#EAEAEA"/>
</radialGradient>
<radialGradient id="paint3_angular_38_47" cx="0" cy="0" r="1" gradientUnits="userSpaceOnUse" gradientTransform="translate(12.0125 11.9875) rotate(-90) scale(9.8755)">
<stop stop-color="#244B6F"/>
<stop offset="1" stop-color="#EAEAEA"/>
</radialGradient>
<radialGradient id="paint4_angular_38_47" cx="0" cy="0" r="1" gradientUnits="userSpaceOnUse" gradientTransform="translate(12.0125 11.9875) rotate(-90) scale(9.8755)">
<stop stop-color="#244B6F"/>
<stop offset="1" stop-color="#EAEAEA"/>
</radialGradient>
</defs>
</svg>
